<?xml version="1.0" encoding="UTF-8"?>
<svg xmlns="http://www.w3.org/2000/svg" xmlns:xlink="http://www.w3.org/1999/xlink" width="48px" height="48px" viewBox="0 0 48 48" version="1.1">
<g id="surface1">
<path style=" stroke:none;fill-rule:nonzero;fill:rgb(0%,0%,0%);fill-opacity:1;" d="M 47.5 36.914062 C 45.792969 37.351562 44.734375 36.933594 43.785156 35.507812 C 41.65625 32.316406 39.304688 29.273438 37.035156 26.171875 C 36.742188 25.769531 36.4375 25.375 36.058594 24.878906 C 33.375 28.5 30.695312 31.949219 28.175781 35.539062 C 27.277344 36.820312 26.332031 37.378906 24.652344 36.925781 L 34.746094 23.378906 L 25.351562 11.140625 C 26.964844 10.828125 28.082031 10.988281 29.074219 12.433594 C 31.261719 15.628906 33.671875 18.671875 36.074219 21.890625 C 38.492188 18.683594 40.875 15.636719 43.125 12.472656 C 44.027344 11.191406 45 10.703125 46.625 11.175781 C 45.394531 12.804688 44.191406 14.410156 42.980469 16.003906 C 41.34375 18.152344 39.738281 20.328125 38.042969 22.433594 C 37.441406 23.183594 37.539062 23.671875 38.078125 24.378906 C 41.210938 28.5 44.308594 32.664062 47.5 36.914062 Z M 0.5 23.152344 C 0.769531 21.796875 0.949219 20.417969 1.324219 19.089844 C 3.574219 11.054688 12.796875 7.714844 19.136719 12.695312 C 22.847656 15.613281 23.769531 19.734375 23.585938 24.375 L 2.664062 24.375 C 2.347656 32.703125 8.34375 37.734375 15.984375 35.167969 C 18.667969 34.265625 20.246094 32.167969 21.039062 29.542969 C 21.4375 28.226562 22.101562 28.019531 23.339844 28.394531 C 22.707031 31.679688 21.269531 34.425781 18.269531 36.140625 C 13.769531 38.714844 7.347656 37.882812 3.96875 34.308594 C 1.972656 32.207031 1.125 29.59375 0.75 26.769531 C 0.695312 26.320312 0.578125 25.878906 0.488281 25.433594 C 0.496094 24.671875 0.5 23.914062 0.5 23.152344 Z M 2.699219 22.59375 L 21.609375 22.59375 C 21.488281 16.570312 17.738281 12.292969 12.609375 12.253906 C 6.984375 12.210938 2.945312 16.386719 2.699219 22.59375 Z M 2.699219 22.59375 "/>
</g>
</svg>
