<?xml version="1.0" encoding="UTF-8"?>
<svg xmlns="http://www.w3.org/2000/svg" xmlns:xlink="http://www.w3.org/1999/xlink" width="48px" height="48px" viewBox="0 0 48 48" version="1.1">
<g id="surface1">
<path style=" stroke:none;fill-rule:nonzero;fill:rgb(0%,69.01961%,100%);fill-opacity:1;" d="M 0 25.660156 L 0 4.875 L 18 15.265625 L 18 22.195312 L 6 15.265625 L 6 29.121094 Z M 0 25.660156 "/>
<path style=" stroke:none;fill-rule:nonzero;fill:rgb(0%,50.588238%,79.607844%);fill-opacity:1;" d="M 18 15.265625 L 36 4.875 L 36 25.660156 L 24 32.585938 L 18 29.121094 L 30 22.195312 L 30 15.265625 L 18 22.195312 Z M 18 15.265625 "/>
<path style=" stroke:none;fill-rule:nonzero;fill:rgb(0%,69.01961%,100%);fill-opacity:1;" d="M 18 29.121094 L 18 36.050781 L 30 42.980469 L 30 36.050781 Z M 18 29.121094 "/>
<path style=" stroke:none;fill-rule:nonzero;fill:rgb(0%,50.588238%,79.607844%);fill-opacity:1;" d="M 30 42.980469 L 48 32.585938 L 48 18.730469 L 42 22.195312 L 42 29.121094 L 30 36.050781 Z M 42 15.265625 L 42 8.339844 L 48 4.875 L 48 11.804688 Z M 42 15.265625 "/>
</g>
</svg>
