<?xml version="1.0" encoding="UTF-8"?>
<svg xmlns="http://www.w3.org/2000/svg" xmlns:xlink="http://www.w3.org/1999/xlink" width="42px" height="42px" viewBox="0 0 42 42" version="1.1">
<g id="surface1">
<path style=" stroke:none;fill-rule:nonzero;fill:rgb(52.156866%,0%,0%);fill-opacity:1;" d="M 22.953125 12.898438 C 22.402344 12.921875 21.472656 13.070312 21.472656 13.132812 C 21.472656 13.15625 22.128906 13.484375 22.179688 13.484375 C 22.226562 13.484375 22.984375 13.863281 23.15625 13.96875 C 23.375 14.109375 23.53125 14.238281 23.488281 14.238281 C 23.457031 14.238281 22.675781 13.9375 22.378906 13.808594 C 22.140625 13.707031 21.136719 13.410156 20.652344 13.292969 C 20.386719 13.234375 20.277344 13.210938 19.828125 13.128906 C 19.164062 13.007812 18.386719 13 18.050781 13.109375 C 17.566406 13.269531 17.457031 13.460938 17.457031 14.175781 C 17.457031 14.570312 17.476562 14.734375 17.5625 15.089844 C 17.597656 15.242188 17.703125 15.582031 17.753906 15.695312 C 17.765625 15.730469 17.8125 15.84375 17.851562 15.941406 C 17.890625 16.039062 18.011719 16.292969 18.113281 16.5 C 18.703125 17.667969 19.585938 18.644531 20.832031 19.503906 C 21.222656 19.773438 22.289062 20.28125 22.71875 20.402344 C 22.828125 20.433594 22.863281 20.496094 22.773438 20.496094 C 22.675781 20.496094 21.773438 20.246094 21.589844 20.167969 C 21.519531 20.136719 21.449219 20.109375 21.375 20.082031 C 20.734375 19.824219 19.914062 19.289062 19.234375 18.683594 C 18.492188 18.023438 17.898438 17.210938 17.492188 16.300781 C 17.230469 15.714844 17.054688 15.03125 17.011719 14.433594 C 16.984375 14.09375 16.957031 14.011719 16.871094 14.015625 C 16.839844 14.015625 16.558594 14.003906 16.25 13.988281 C 15.410156 13.953125 14.261719 14.046875 13.125 14.242188 C 10.949219 14.613281 8.605469 15.46875 6.191406 16.769531 C 5.789062 16.988281 5.394531 17.214844 5.003906 17.449219 C 4.957031 17.476562 4.8125 17.5625 4.679688 17.644531 C 4.546875 17.726562 4.394531 17.820312 4.335938 17.855469 C 4.210938 17.929688 2.832031 18.863281 2.667969 18.988281 C 2.605469 19.035156 2.433594 19.160156 2.289062 19.265625 C 1.632812 19.75 0.207031 20.914062 0.125 21.035156 C 0.0859375 21.09375 0.148438 21.121094 0.234375 21.09375 C 0.277344 21.074219 0.386719 21.050781 0.476562 21.039062 C 0.570312 21.027344 0.808594 20.964844 1.003906 20.898438 C 1.203125 20.835938 1.421875 20.769531 1.480469 20.753906 C 1.96875 20.640625 2.167969 20.601562 2.453125 20.558594 C 2.582031 20.542969 2.773438 20.511719 2.882812 20.496094 C 4.21875 20.296875 4.859375 20.25 5.453125 20.292969 C 6.75 20.398438 7.988281 20.621094 8.695312 20.871094 C 9.226562 21.0625 10.304688 21.644531 10.78125 21.996094 C 11.054688 22.203125 11.9375 23.082031 12.128906 23.34375 C 12.28125 23.554688 12.449219 23.738281 12.488281 23.738281 C 12.503906 23.738281 12.519531 23.070312 12.523438 22.253906 L 12.53125 20.773438 L 14.265625 20.765625 C 15.628906 20.757812 16.007812 20.769531 16.03125 20.796875 C 16.0625 20.839844 16.140625 20.980469 16.402344 21.460938 C 16.648438 21.925781 16.769531 22.148438 16.847656 22.28125 C 16.886719 22.351562 16.976562 22.523438 17.054688 22.65625 C 17.125 22.792969 17.261719 23.039062 17.355469 23.210938 C 17.445312 23.382812 17.519531 23.527344 17.519531 23.53125 C 17.519531 23.5625 17.65625 23.738281 17.679688 23.738281 C 17.691406 23.738281 17.726562 23.6875 17.75 23.632812 C 17.773438 23.574219 17.84375 23.445312 17.902344 23.34375 C 17.960938 23.246094 18.066406 23.054688 18.136719 22.921875 C 18.210938 22.785156 18.308594 22.597656 18.363281 22.511719 C 18.507812 22.25 18.65625 21.96875 18.785156 21.742188 C 18.917969 21.488281 19.054688 21.234375 19.195312 20.988281 C 19.238281 20.90625 19.289062 20.820312 19.308594 20.796875 C 19.332031 20.769531 19.722656 20.757812 21.125 20.765625 L 22.90625 20.773438 L 22.917969 23.667969 C 22.921875 25.945312 22.933594 26.554688 22.964844 26.554688 C 22.984375 26.550781 23.117188 26.476562 23.253906 26.382812 C 23.445312 26.25 23.527344 26.167969 23.613281 26.015625 C 23.816406 25.671875 24.386719 25.128906 24.769531 24.921875 C 25.230469 24.664062 25.730469 24.476562 26.25 24.363281 C 26.777344 24.253906 26.933594 24.238281 28.128906 24.195312 C 30.3125 24.117188 30.632812 24.105469 30.648438 24.089844 C 30.660156 24.082031 30.632812 23.992188 30.585938 23.894531 C 30.542969 23.800781 30.460938 23.625 30.40625 23.507812 C 30.199219 23.058594 30.199219 22.90625 30.417969 22.6875 C 30.566406 22.53125 30.945312 22.398438 31.601562 22.265625 C 31.710938 22.246094 31.847656 22.214844 31.902344 22.195312 C 31.957031 22.179688 32.027344 22.167969 32.054688 22.167969 C 32.140625 22.167969 32.792969 22.007812 32.933594 21.953125 C 33.027344 21.914062 33.542969 21.800781 34.15625 21.683594 C 34.421875 21.632812 35.113281 21.496094 35.6875 21.378906 C 36.046875 21.308594 36.425781 21.230469 36.527344 21.210938 C 36.625 21.195312 36.765625 21.164062 36.839844 21.152344 C 36.910156 21.136719 37.007812 21.113281 37.050781 21.109375 C 37.097656 21.097656 37.328125 21.050781 37.5625 21.003906 C 37.738281 20.964844 37.914062 20.929688 38.09375 20.902344 C 38.257812 20.886719 39.5 20.585938 39.785156 20.496094 C 40.242188 20.347656 40.375 20.289062 40.664062 20.097656 C 40.972656 19.886719 41.058594 19.773438 41.363281 19.160156 C 41.703125 18.484375 41.753906 18.371094 41.847656 18.082031 C 41.996094 17.628906 41.988281 17.457031 41.800781 17.265625 C 41.667969 17.132812 41.382812 17 41.175781 16.96875 C 41.023438 16.949219 41 16.957031 40.925781 17.039062 C 40.878906 17.089844 40.839844 17.148438 40.839844 17.167969 C 40.839844 17.195312 40.789062 17.339844 40.640625 17.695312 C 40.625 17.730469 40.597656 17.820312 40.574219 17.890625 C 40.554688 17.964844 40.515625 18.066406 40.492188 18.121094 C 40.449219 18.210938 40.445312 18.195312 40.460938 17.941406 C 40.476562 17.6875 40.519531 17.476562 40.617188 17.152344 C 40.632812 17.09375 40.65625 16.988281 40.664062 16.921875 L 40.683594 16.804688 L 40.339844 16.667969 C 39.984375 16.519531 39.675781 16.390625 39.5 16.3125 C 39.441406 16.289062 39.292969 16.230469 39.171875 16.183594 C 39.046875 16.136719 38.894531 16.078125 38.832031 16.050781 C 38.71875 16 38.601562 15.953125 38.484375 15.90625 C 38.265625 15.820312 37.496094 15.558594 36.839844 15.351562 C 36.398438 15.21875 35.960938 15.085938 35.523438 14.957031 C 35.367188 14.917969 35.214844 14.875 35.0625 14.828125 C 35.007812 14.8125 34.878906 14.777344 34.78125 14.753906 C 34.199219 14.59375 34.050781 14.550781 33.839844 14.492188 C 33.726562 14.460938 33.613281 14.429688 33.496094 14.402344 C 33.433594 14.386719 33.261719 14.347656 33.117188 14.308594 C 32.863281 14.246094 31.800781 14.003906 31.222656 13.871094 L 30.8125 13.777344 C 30.738281 13.757812 30.609375 13.734375 30.515625 13.71875 C 30.425781 13.699219 30.238281 13.664062 30.101562 13.636719 C 29.96875 13.609375 29.679688 13.554688 29.460938 13.515625 C 29.242188 13.480469 28.984375 13.433594 28.886719 13.417969 C 27.976562 13.253906 27.914062 13.242188 26.28125 13.0625 C 25.277344 12.949219 23.925781 12.851562 23.597656 12.867188 C 23.546875 12.867188 23.253906 12.882812 22.953125 12.898438 Z M 19.144531 14.511719 C 20.015625 14.796875 20.863281 15.179688 21.441406 15.550781 C 21.902344 15.851562 22.476562 16.324219 22.628906 16.539062 L 22.695312 16.625 L 22.570312 16.578125 C 22.503906 16.546875 22.359375 16.484375 22.25 16.433594 C 21.667969 16.164062 21.605469 16.140625 21.605469 16.203125 C 21.605469 16.214844 21.742188 16.433594 21.902344 16.675781 C 22.066406 16.921875 22.199219 17.136719 22.199219 17.15625 C 22.199219 17.175781 22.136719 17.148438 22.058594 17.09375 C 21.765625 16.890625 21.070312 16.601562 21.03125 16.660156 C 21.019531 16.675781 21.234375 16.945312 21.507812 17.265625 C 21.777344 17.582031 22 17.855469 22 17.875 C 22 17.921875 21.949219 17.917969 21.699219 17.824219 C 21.441406 17.734375 21.375 17.722656 21.375 17.785156 C 21.375 17.828125 21.933594 18.578125 22.152344 18.835938 C 22.214844 18.910156 22.265625 18.980469 22.265625 18.996094 C 22.265625 19.074219 21.492188 18.574219 20.949219 18.140625 C 20.167969 17.519531 19.410156 16.683594 19.015625 15.992188 C 18.6875 15.425781 18.574219 15.125 18.574219 14.789062 C 18.574219 14.59375 18.585938 14.554688 18.65625 14.484375 C 18.699219 14.4375 18.753906 14.402344 18.773438 14.402344 C 18.792969 14.402344 18.957031 14.453125 19.144531 14.511719 Z M 29.542969 15.679688 C 29.859375 15.734375 30.292969 15.808594 30.5 15.847656 C 30.707031 15.882812 30.960938 15.925781 31.058594 15.941406 C 31.15625 15.960938 31.296875 15.988281 31.371094 16.003906 C 31.445312 16.019531 31.585938 16.050781 31.683594 16.074219 C 32.011719 16.144531 32.089844 16.160156 32.621094 16.285156 C 33.195312 16.421875 33.320312 16.445312 33.496094 16.480469 C 33.644531 16.511719 33.792969 16.566406 33.792969 16.59375 C 33.792969 16.605469 33.683594 16.667969 33.550781 16.734375 C 33.28125 16.867188 33.226562 16.878906 32.113281 16.921875 C 31.355469 16.953125 30.949219 16.945312 30.582031 16.886719 C 29.835938 16.769531 29.453125 16.5625 29.152344 16.109375 C 29.046875 15.953125 28.976562 15.910156 28.738281 15.847656 C 28.648438 15.820312 28.511719 15.785156 28.441406 15.761719 C 28.367188 15.738281 28.242188 15.703125 28.164062 15.679688 C 27.925781 15.617188 28.0625 15.582031 28.539062 15.582031 C 28.867188 15.582031 29.097656 15.605469 29.542969 15.679688 Z M 33.503906 20.257812 C 33.480469 20.261719 33.449219 20.261719 33.421875 20.257812 C 33.402344 20.246094 33.417969 20.238281 33.464844 20.238281 C 33.507812 20.238281 33.523438 20.246094 33.507812 20.257812 Z M 33.363281 20.296875 C 33.363281 20.3125 33.324219 20.335938 33.273438 20.34375 C 33.171875 20.371094 32.773438 20.484375 32.640625 20.527344 C 32.59375 20.542969 32.445312 20.589844 32.308594 20.628906 C 31.96875 20.726562 31.148438 20.996094 30.925781 21.082031 C 30.511719 21.238281 29.535156 21.757812 29.398438 21.894531 C 29.195312 22.09375 29.132812 22.308594 29.160156 22.722656 C 29.171875 22.898438 29.195312 23.117188 29.214844 23.210938 C 29.253906 23.417969 29.230469 23.472656 29.152344 23.371094 C 29.074219 23.269531 28.90625 22.902344 28.855469 22.722656 C 28.828125 22.640625 28.800781 22.53125 28.78125 22.480469 C 28.722656 22.292969 28.746094 22.074219 28.839844 21.941406 C 28.964844 21.75 29.414062 21.445312 29.9375 21.195312 C 30.1875 21.070312 30.917969 20.824219 31.585938 20.625 C 31.71875 20.585938 31.867188 20.542969 31.914062 20.527344 C 32.390625 20.367188 33.363281 20.214844 33.363281 20.296875 Z M 22.945312 20.515625 C 22.9375 20.523438 22.90625 20.527344 22.882812 20.519531 C 22.855469 20.507812 22.867188 20.5 22.902344 20.5 C 22.941406 20.496094 22.960938 20.503906 22.945312 20.515625 Z M 22.945312 20.515625 "/>
<path style=" stroke:none;fill-rule:nonzero;fill:rgb(52.156866%,0%,0%);fill-opacity:1;" d="M 16.039062 26.851562 L 16.039062 29.144531 L 17.679688 29.144531 C 18.914062 29.144531 19.328125 29.132812 19.359375 29.105469 C 19.410156 29.054688 19.417969 24.558594 19.371094 24.558594 C 19.351562 24.558594 19.332031 24.582031 19.320312 24.613281 C 19.304688 24.644531 18.949219 25.203125 18.519531 25.859375 C 17.839844 26.894531 17.652344 27.144531 17.652344 27.019531 C 17.652344 26.996094 16.53125 25.242188 16.242188 24.820312 C 16.203125 24.765625 16.171875 24.707031 16.140625 24.644531 C 16.113281 24.597656 16.082031 24.558594 16.066406 24.558594 C 16.050781 24.558594 16.039062 25.589844 16.039062 26.851562 Z M 16.039062 26.851562 "/>
</g>
</svg>
