<?xml version="1.0" encoding="UTF-8"?>
<svg xmlns="http://www.w3.org/2000/svg" xmlns:xlink="http://www.w3.org/1999/xlink" width="46px" height="46px" viewBox="0 0 46 46" version="1.1">
<g id="surface1">
<path style=" stroke:none;fill-rule:nonzero;fill:rgb(52.156866%,0%,0%);fill-opacity:1;" d="M 25.140625 14.125 C 24.535156 14.152344 23.519531 14.3125 23.519531 14.382812 C 23.519531 14.410156 24.238281 14.769531 24.292969 14.769531 C 24.34375 14.769531 25.175781 15.183594 25.359375 15.300781 C 25.601562 15.453125 25.773438 15.59375 25.722656 15.59375 C 25.691406 15.59375 24.835938 15.265625 24.511719 15.125 C 24.25 15.011719 23.152344 14.6875 22.617188 14.558594 C 22.328125 14.492188 22.207031 14.46875 21.714844 14.378906 C 20.992188 14.246094 20.140625 14.238281 19.769531 14.359375 C 19.238281 14.53125 19.117188 14.742188 19.117188 15.527344 C 19.117188 15.957031 19.140625 16.140625 19.234375 16.527344 C 19.273438 16.695312 19.390625 17.066406 19.441406 17.191406 C 19.457031 17.230469 19.507812 17.351562 19.550781 17.460938 C 19.59375 17.566406 19.726562 17.84375 19.839844 18.070312 C 20.484375 19.351562 21.453125 20.421875 22.816406 21.359375 C 23.246094 21.65625 24.414062 22.214844 24.882812 22.347656 C 25 22.378906 25.042969 22.445312 24.945312 22.445312 C 24.835938 22.445312 23.847656 22.175781 23.644531 22.089844 C 23.570312 22.054688 23.492188 22.023438 23.410156 21.996094 C 22.707031 21.710938 21.808594 21.128906 21.066406 20.464844 C 20.253906 19.738281 19.601562 18.851562 19.15625 17.855469 C 18.871094 17.210938 18.679688 16.460938 18.632812 15.808594 C 18.601562 15.4375 18.574219 15.347656 18.476562 15.351562 C 18.445312 15.351562 18.136719 15.339844 17.796875 15.320312 C 16.878906 15.28125 15.621094 15.382812 14.375 15.597656 C 11.992188 16.003906 9.425781 16.941406 6.78125 18.367188 C 6.34375 18.605469 5.90625 18.851562 5.480469 19.109375 C 5.429688 19.140625 5.269531 19.234375 5.125 19.324219 C 4.980469 19.414062 4.8125 19.515625 4.75 19.554688 C 4.613281 19.636719 3.101562 20.660156 2.921875 20.796875 C 2.855469 20.847656 2.664062 20.988281 2.507812 21.101562 C 1.789062 21.632812 0.226562 22.90625 0.136719 23.035156 C 0.09375 23.101562 0.164062 23.132812 0.253906 23.101562 C 0.304688 23.082031 0.425781 23.058594 0.523438 23.042969 C 0.625 23.027344 0.882812 22.960938 1.101562 22.890625 C 1.320312 22.820312 1.554688 22.75 1.621094 22.730469 C 2.15625 22.605469 2.375 22.5625 2.6875 22.515625 C 2.828125 22.496094 3.039062 22.464844 3.15625 22.445312 C 4.621094 22.230469 5.320312 22.179688 5.972656 22.226562 C 7.390625 22.34375 8.746094 22.585938 9.523438 22.859375 C 10.105469 23.070312 11.285156 23.707031 11.804688 24.089844 C 12.105469 24.316406 13.074219 25.277344 13.285156 25.570312 C 13.449219 25.800781 13.636719 26 13.679688 26 C 13.691406 26 13.710938 25.265625 13.714844 24.375 L 13.726562 22.753906 L 15.625 22.742188 C 17.117188 22.734375 17.53125 22.746094 17.554688 22.777344 C 17.59375 22.824219 17.679688 22.980469 17.964844 23.503906 C 18.234375 24.011719 18.367188 24.257812 18.453125 24.402344 C 18.496094 24.484375 18.59375 24.667969 18.679688 24.816406 C 18.757812 24.960938 18.90625 25.234375 19.007812 25.421875 C 19.105469 25.609375 19.191406 25.765625 19.191406 25.773438 C 19.191406 25.804688 19.339844 26 19.363281 26 C 19.378906 26 19.414062 25.945312 19.441406 25.886719 C 19.46875 25.820312 19.542969 25.675781 19.605469 25.570312 C 19.671875 25.460938 19.785156 25.25 19.863281 25.101562 C 19.945312 24.957031 20.054688 24.75 20.109375 24.652344 C 20.269531 24.371094 20.433594 24.0625 20.574219 23.8125 C 20.71875 23.535156 20.867188 23.257812 21.023438 22.984375 C 21.070312 22.894531 21.128906 22.800781 21.144531 22.777344 C 21.175781 22.746094 21.601562 22.734375 23.136719 22.742188 L 25.089844 22.753906 L 25.101562 25.921875 C 25.105469 28.417969 25.117188 29.085938 25.152344 29.085938 C 25.175781 29.082031 25.320312 28.996094 25.46875 28.894531 C 25.675781 28.75 25.765625 28.660156 25.863281 28.492188 C 26.085938 28.117188 26.707031 27.523438 27.128906 27.292969 C 27.636719 27.011719 28.183594 26.808594 28.75 26.683594 C 29.328125 26.5625 29.496094 26.542969 30.808594 26.5 C 33.195312 26.414062 33.550781 26.402344 33.570312 26.382812 C 33.582031 26.375 33.546875 26.28125 33.5 26.171875 C 33.449219 26.066406 33.363281 25.875 33.300781 25.746094 C 33.074219 25.253906 33.074219 25.089844 33.3125 24.847656 C 33.476562 24.679688 33.894531 24.53125 34.613281 24.386719 C 34.730469 24.363281 34.878906 24.332031 34.9375 24.308594 C 35 24.292969 35.078125 24.277344 35.109375 24.277344 C 35.199219 24.277344 35.917969 24.101562 36.070312 24.042969 C 36.171875 24 36.738281 23.878906 37.40625 23.75 C 37.699219 23.691406 38.457031 23.542969 39.085938 23.414062 C 39.480469 23.335938 39.894531 23.253906 40.003906 23.234375 C 40.113281 23.210938 40.269531 23.179688 40.347656 23.164062 C 40.425781 23.148438 40.53125 23.125 40.582031 23.117188 C 40.632812 23.109375 40.882812 23.058594 41.140625 23.003906 C 41.332031 22.960938 41.527344 22.925781 41.722656 22.890625 C 41.902344 22.875 43.261719 22.546875 43.574219 22.445312 C 44.074219 22.285156 44.222656 22.222656 44.535156 22.011719 C 44.875 21.78125 44.96875 21.65625 45.304688 20.988281 C 45.675781 20.246094 45.730469 20.121094 45.835938 19.804688 C 45.996094 19.308594 45.984375 19.117188 45.78125 18.910156 C 45.636719 18.765625 45.324219 18.617188 45.097656 18.585938 C 44.929688 18.566406 44.90625 18.570312 44.824219 18.660156 C 44.773438 18.714844 44.730469 18.78125 44.730469 18.800781 C 44.730469 18.835938 44.671875 18.992188 44.511719 19.378906 C 44.496094 19.417969 44.464844 19.515625 44.4375 19.59375 C 44.417969 19.675781 44.371094 19.785156 44.347656 19.847656 C 44.300781 19.945312 44.296875 19.929688 44.316406 19.648438 C 44.332031 19.371094 44.378906 19.140625 44.484375 18.785156 C 44.503906 18.71875 44.527344 18.605469 44.539062 18.53125 L 44.558594 18.402344 L 44.183594 18.253906 C 43.792969 18.09375 43.457031 17.953125 43.261719 17.863281 C 43.195312 17.839844 43.035156 17.777344 42.902344 17.726562 C 42.765625 17.675781 42.597656 17.609375 42.53125 17.578125 C 42.40625 17.523438 42.277344 17.472656 42.152344 17.421875 C 41.910156 17.328125 41.066406 17.039062 40.347656 16.816406 C 39.867188 16.667969 39.386719 16.523438 38.90625 16.378906 C 38.734375 16.335938 38.566406 16.289062 38.398438 16.242188 C 38.34375 16.226562 38.199219 16.1875 38.09375 16.15625 C 37.457031 15.984375 37.292969 15.9375 37.066406 15.875 C 36.9375 15.835938 36.8125 15.804688 36.6875 15.773438 C 36.617188 15.757812 36.429688 15.714844 36.273438 15.671875 C 35.992188 15.605469 34.828125 15.335938 34.195312 15.191406 L 33.746094 15.089844 C 33.667969 15.070312 33.523438 15.042969 33.421875 15.023438 C 33.324219 15.003906 33.117188 14.964844 32.96875 14.933594 C 32.824219 14.90625 32.503906 14.84375 32.265625 14.804688 C 32.027344 14.761719 31.746094 14.710938 31.636719 14.695312 C 30.640625 14.515625 30.574219 14.503906 28.785156 14.304688 C 27.6875 14.179688 26.207031 14.074219 25.84375 14.09375 C 25.789062 14.09375 25.46875 14.109375 25.140625 14.125 Z M 20.96875 15.894531 C 21.921875 16.203125 22.847656 16.625 23.484375 17.035156 C 23.988281 17.359375 24.617188 17.878906 24.785156 18.113281 L 24.855469 18.210938 L 24.722656 18.15625 C 24.644531 18.125 24.488281 18.054688 24.367188 18 C 23.734375 17.703125 23.664062 17.679688 23.664062 17.742188 C 23.664062 17.761719 23.8125 18 23.988281 18.261719 C 24.167969 18.53125 24.3125 18.769531 24.3125 18.792969 C 24.3125 18.808594 24.246094 18.78125 24.160156 18.722656 C 23.835938 18.5 23.074219 18.179688 23.03125 18.246094 C 23.019531 18.261719 23.253906 18.5625 23.554688 18.910156 C 23.851562 19.257812 24.097656 19.554688 24.097656 19.578125 C 24.097656 19.632812 24.039062 19.625 23.765625 19.523438 C 23.484375 19.421875 23.410156 19.410156 23.410156 19.480469 C 23.410156 19.527344 24.019531 20.347656 24.261719 20.632812 C 24.332031 20.710938 24.386719 20.785156 24.386719 20.804688 C 24.386719 20.890625 23.539062 20.339844 22.941406 19.867188 C 22.085938 19.1875 21.261719 18.269531 20.824219 17.515625 C 20.46875 16.894531 20.34375 16.5625 20.34375 16.195312 C 20.34375 15.984375 20.355469 15.9375 20.433594 15.863281 C 20.480469 15.8125 20.539062 15.773438 20.5625 15.773438 C 20.582031 15.773438 20.761719 15.828125 20.96875 15.894531 Z M 32.359375 17.171875 C 32.703125 17.234375 33.175781 17.316406 33.402344 17.355469 C 33.632812 17.394531 33.910156 17.441406 34.015625 17.460938 C 34.125 17.480469 34.28125 17.511719 34.359375 17.527344 C 34.4375 17.546875 34.59375 17.578125 34.703125 17.605469 C 35.058594 17.683594 35.144531 17.699219 35.730469 17.835938 C 36.355469 17.984375 36.496094 18.011719 36.6875 18.050781 C 36.847656 18.082031 37.011719 18.144531 37.011719 18.171875 C 37.011719 18.183594 36.890625 18.253906 36.746094 18.328125 C 36.453125 18.476562 36.390625 18.488281 35.171875 18.53125 C 34.339844 18.566406 33.898438 18.558594 33.492188 18.492188 C 32.675781 18.367188 32.257812 18.140625 31.929688 17.644531 C 31.8125 17.476562 31.738281 17.425781 31.472656 17.355469 C 31.375 17.328125 31.226562 17.289062 31.148438 17.261719 C 31.070312 17.238281 30.933594 17.199219 30.847656 17.171875 C 30.585938 17.105469 30.734375 17.066406 31.257812 17.066406 C 31.617188 17.066406 31.871094 17.089844 32.359375 17.171875 Z M 36.695312 22.1875 C 36.667969 22.191406 36.636719 22.191406 36.605469 22.1875 C 36.582031 22.175781 36.601562 22.167969 36.652344 22.167969 C 36.699219 22.167969 36.71875 22.175781 36.695312 22.1875 Z M 36.542969 22.226562 C 36.542969 22.246094 36.5 22.269531 36.445312 22.28125 C 36.332031 22.3125 35.890625 22.4375 35.75 22.484375 C 35.699219 22.5 35.535156 22.550781 35.386719 22.59375 C 35.015625 22.703125 34.113281 22.996094 33.871094 23.089844 C 33.417969 23.261719 32.347656 23.828125 32.199219 23.980469 C 31.976562 24.199219 31.90625 24.433594 31.9375 24.886719 C 31.949219 25.078125 31.976562 25.316406 31.996094 25.421875 C 32.039062 25.648438 32.015625 25.710938 31.929688 25.597656 C 31.839844 25.484375 31.65625 25.085938 31.605469 24.886719 C 31.574219 24.796875 31.542969 24.679688 31.523438 24.621094 C 31.460938 24.417969 31.484375 24.175781 31.585938 24.03125 C 31.722656 23.820312 32.214844 23.488281 32.789062 23.210938 C 33.0625 23.078125 33.859375 22.804688 34.59375 22.589844 C 34.742188 22.546875 34.902344 22.496094 34.953125 22.484375 C 35.472656 22.308594 36.542969 22.140625 36.542969 22.226562 Z M 25.132812 22.46875 C 25.121094 22.480469 25.089844 22.484375 25.0625 22.472656 C 25.035156 22.460938 25.046875 22.453125 25.085938 22.453125 C 25.125 22.445312 25.148438 22.457031 25.132812 22.46875 Z M 25.132812 22.46875 "/>
<path style=" stroke:none;fill-rule:nonzero;fill:rgb(52.156866%,0%,0%);fill-opacity:1;" d="M 17.566406 29.410156 L 17.566406 31.917969 L 19.363281 31.917969 C 20.714844 31.917969 21.171875 31.910156 21.203125 31.875 C 21.257812 31.824219 21.269531 26.898438 21.214844 26.898438 C 21.195312 26.898438 21.171875 26.925781 21.160156 26.957031 C 21.144531 26.988281 20.753906 27.601562 20.285156 28.320312 C 19.539062 29.453125 19.335938 29.730469 19.335938 29.589844 C 19.335938 29.566406 18.105469 27.648438 17.789062 27.183594 C 17.75 27.125 17.710938 27.058594 17.679688 26.992188 C 17.648438 26.9375 17.613281 26.898438 17.597656 26.898438 C 17.582031 26.898438 17.566406 28.027344 17.566406 29.410156 Z M 17.566406 29.410156 "/>
</g>
</svg>
