<?xml version="1.0" encoding="UTF-8"?>
<svg xmlns="http://www.w3.org/2000/svg" xmlns:xlink="http://www.w3.org/1999/xlink" width="42px" height="42px" viewBox="0 0 42 42" version="1.1">
<g id="surface1">
<path style=" stroke:none;fill-rule:evenodd;fill:rgb(26.274511%,60.000002%,20.392157%);fill-opacity:1;" d="M 28.886719 14.046875 C 29.414062 15.570312 29.792969 17.125 29.917969 18.738281 C 30.074219 20.738281 30.003906 22.722656 29.582031 24.691406 C 29.570312 24.746094 29.542969 24.796875 29.527344 24.847656 C 29.394531 24.847656 29.257812 24.832031 29.128906 24.851562 C 28.039062 25.023438 26.945312 25.203125 25.855469 25.378906 C 24.726562 25.5625 23.597656 25.738281 22.472656 25.933594 C 22.074219 26 21.578125 25.917969 21.417969 26.472656 C 21.414062 26.484375 21.367188 26.488281 21.339844 26.496094 L 21.394531 23.199219 L 21.339844 15.242188 L 21.863281 15.152344 C 22.726562 15.011719 23.585938 14.867188 24.445312 14.730469 C 25.472656 14.566406 26.5 14.410156 27.527344 14.25 C 27.980469 14.179688 28.433594 14.117188 28.886719 14.046875 Z M 28.886719 14.046875 "/>
<path style=" stroke:none;fill-rule:evenodd;fill:rgb(27.058825%,64.705884%,21.960784%);fill-opacity:1;" d="M 20.253906 36.113281 C 19.699219 35.632812 19.125 35.179688 18.59375 34.675781 C 15.734375 31.980469 13.640625 28.804688 12.613281 24.976562 C 12.328125 23.921875 12.140625 22.851562 12.078125 21.761719 C 12.035156 21 11.972656 20.234375 12.027344 19.472656 C 12.171875 17.457031 12.460938 15.460938 13.054688 13.519531 L 13.085938 13.476562 C 13.144531 13.550781 13.226562 13.617188 13.253906 13.707031 C 13.832031 15.40625 14.40625 17.105469 14.976562 18.808594 C 16.765625 24.15625 18.554688 29.507812 20.347656 34.851562 C 20.382812 34.957031 20.476562 35.042969 20.539062 35.136719 Z M 20.253906 36.113281 "/>
<path style=" stroke:none;fill-rule:evenodd;fill:rgb(27.450982%,62.7451%,21.568628%);fill-opacity:1;" d="M 28.886719 14.046875 C 28.433594 14.117188 27.980469 14.179688 27.527344 14.25 C 26.5 14.410156 25.472656 14.566406 24.445312 14.730469 C 23.585938 14.867188 22.722656 15.011719 21.863281 15.152344 L 21.339844 15.242188 L 21.335938 14.898438 C 21.316406 14.617188 21.289062 14.335938 21.285156 14.054688 C 21.261719 12.253906 21.246094 10.457031 21.226562 8.660156 C 21.210938 7.535156 21.191406 6.410156 21.167969 5.285156 C 21.152344 4.585938 21.140625 3.886719 21.105469 3.191406 C 21.089844 2.816406 21.03125 2.441406 21.003906 2.066406 C 20.992188 1.851562 21.011719 1.632812 21.015625 1.417969 C 21.28125 1.9375 21.546875 2.460938 21.820312 2.976562 C 22.257812 3.789062 22.949219 4.390625 23.574219 5.046875 C 26.042969 7.636719 27.796875 10.648438 28.886719 14.046875 Z M 28.886719 14.046875 "/>
<path style=" stroke:none;fill-rule:evenodd;fill:rgb(25.098041%,58.039218%,20%);fill-opacity:1;" d="M 21.339844 26.496094 C 21.367188 26.488281 21.414062 26.484375 21.417969 26.472656 C 21.578125 25.917969 22.070312 26 22.472656 25.933594 C 23.597656 25.738281 24.726562 25.5625 25.855469 25.378906 C 26.945312 25.203125 28.039062 25.023438 29.128906 24.851562 C 29.257812 24.832031 29.394531 24.847656 29.527344 24.847656 C 29.320312 25.578125 29.160156 26.320312 28.902344 27.03125 C 28.609375 27.832031 28.253906 28.617188 27.875 29.386719 C 27.308594 30.53125 26.609375 31.609375 25.789062 32.589844 C 25.160156 33.347656 24.460938 34.046875 23.753906 34.738281 C 23.367188 35.121094 22.910156 35.433594 22.480469 35.777344 L 22.371094 35.699219 L 21.972656 35.359375 L 21.5625 34.457031 C 21.277344 33.402344 21.125 32.320312 21.101562 31.226562 L 21.109375 31.042969 L 21.167969 30.246094 C 21.1875 29.976562 21.210938 29.703125 21.222656 29.433594 C 21.265625 28.453125 21.300781 27.476562 21.339844 26.496094 Z M 21.339844 26.496094 "/>
<path style=" stroke:none;fill-rule:evenodd;fill:rgb(30.980393%,66.666669%,25.490198%);fill-opacity:1;" d="M 21.339844 26.496094 C 21.300781 27.476562 21.265625 28.453125 21.222656 29.433594 C 21.210938 29.707031 21.1875 29.976562 21.167969 30.25 L 20.917969 30.34375 C 20.359375 28.703125 19.800781 27.078125 19.253906 25.449219 C 18.351562 22.757812 17.460938 20.058594 16.5625 17.363281 C 15.832031 15.1875 15.101562 13.015625 14.363281 10.84375 C 14.328125 10.742188 14.230469 10.664062 14.160156 10.574219 L 15.765625 7.621094 C 15.820312 7.714844 15.894531 7.804688 15.929688 7.910156 C 16.671875 10.109375 17.414062 12.308594 18.148438 14.511719 C 19.105469 17.375 20.058594 20.242188 21.015625 23.105469 C 21.050781 23.222656 21.113281 23.328125 21.175781 23.453125 L 21.394531 23.199219 Z M 21.339844 26.496094 "/>
<path style=" stroke:none;fill-rule:evenodd;fill:rgb(29.019609%,65.490198%,23.529412%);fill-opacity:1;" d="M 14.160156 10.574219 C 14.230469 10.664062 14.328125 10.742188 14.363281 10.84375 C 15.101562 13.015625 15.832031 15.191406 16.5625 17.363281 C 17.460938 20.058594 18.355469 22.757812 19.257812 25.449219 C 19.800781 27.078125 20.359375 28.703125 20.917969 30.34375 L 21.167969 30.25 L 21.113281 31.042969 L 21.0625 31.226562 C 20.972656 32.097656 20.898438 32.972656 20.792969 33.84375 C 20.742188 34.277344 20.625 34.707031 20.539062 35.136719 C 20.476562 35.042969 20.382812 34.957031 20.347656 34.851562 C 18.554688 29.507812 16.765625 24.15625 14.976562 18.808594 C 14.40625 17.105469 13.832031 15.40625 13.257812 13.707031 C 13.226562 13.621094 13.144531 13.550781 13.085938 13.476562 Z M 14.160156 10.574219 "/>
<path style=" stroke:none;fill-rule:evenodd;fill:rgb(34.117648%,68.235296%,27.843139%);fill-opacity:1;" d="M 21.394531 23.199219 L 21.175781 23.453125 C 21.113281 23.328125 21.050781 23.222656 21.011719 23.105469 C 20.058594 20.242188 19.105469 17.375 18.148438 14.511719 C 17.414062 12.308594 16.671875 10.109375 15.929688 7.910156 C 15.894531 7.804688 15.820312 7.714844 15.765625 7.621094 L 17.753906 5.007812 C 17.816406 5.089844 17.90625 5.164062 17.9375 5.257812 C 18.488281 6.875 19.035156 8.492188 19.578125 10.109375 C 20.085938 11.621094 20.585938 13.132812 21.101562 14.640625 C 21.132812 14.742188 21.253906 14.8125 21.335938 14.898438 L 21.339844 15.242188 C 21.355469 17.894531 21.375 20.546875 21.394531 23.199219 Z M 21.394531 23.199219 "/>
<path style=" stroke:none;fill-rule:evenodd;fill:rgb(37.64706%,69.803923%,30.980393%);fill-opacity:1;" d="M 21.335938 14.898438 C 21.253906 14.8125 21.136719 14.742188 21.101562 14.640625 C 20.585938 13.132812 20.085938 11.617188 19.578125 10.109375 C 19.035156 8.488281 18.488281 6.875 17.9375 5.257812 C 17.90625 5.164062 17.816406 5.089844 17.753906 5.007812 C 18.398438 4.375 19.027344 3.71875 19.699219 3.113281 C 20.296875 2.578125 20.777344 2.003906 20.796875 1.15625 C 20.796875 1.121094 20.816406 1.085938 20.84375 0.988281 L 21.015625 1.417969 C 21.011719 1.632812 20.992188 1.851562 21.007812 2.066406 C 21.03125 2.441406 21.089844 2.8125 21.109375 3.1875 C 21.140625 3.886719 21.15625 4.585938 21.167969 5.285156 C 21.191406 6.410156 21.210938 7.535156 21.226562 8.660156 C 21.25 10.457031 21.261719 12.253906 21.285156 14.050781 C 21.289062 14.335938 21.316406 14.617188 21.335938 14.898438 Z M 21.335938 14.898438 "/>
<path style=" stroke:none;fill-rule:evenodd;fill:rgb(66.274512%,66.666669%,53.333336%);fill-opacity:1;" d="M 20.539062 35.136719 C 20.625 34.707031 20.738281 34.277344 20.792969 33.84375 C 20.898438 32.972656 20.972656 32.097656 21.058594 31.226562 L 21.082031 31.222656 L 21.105469 31.226562 C 21.125 32.320312 21.28125 33.402344 21.5625 34.457031 C 21.503906 34.53125 21.421875 34.601562 21.390625 34.6875 C 21.152344 35.359375 20.929688 36.035156 20.6875 36.710938 C 20.65625 36.800781 20.5625 36.871094 20.5 36.953125 L 20.253906 36.113281 Z M 20.539062 35.136719 "/>
<path style=" stroke:none;fill-rule:evenodd;fill:rgb(71.372551%,70.980394%,59.607846%);fill-opacity:1;" d="M 20.5 36.953125 C 20.5625 36.875 20.65625 36.800781 20.6875 36.710938 C 20.929688 36.035156 21.152344 35.359375 21.390625 34.6875 C 21.421875 34.601562 21.503906 34.53125 21.5625 34.457031 L 21.972656 35.359375 C 21.890625 35.476562 21.78125 35.578125 21.734375 35.707031 L 20.945312 38.023438 C 20.914062 38.117188 20.800781 38.183594 20.726562 38.261719 Z M 20.5 36.953125 "/>
<path style=" stroke:none;fill-rule:evenodd;fill:rgb(76.078433%,75.686276%,65.490198%);fill-opacity:1;" d="M 20.726562 38.261719 C 20.800781 38.183594 20.914062 38.117188 20.945312 38.023438 L 21.734375 35.707031 C 21.78125 35.578125 21.890625 35.476562 21.972656 35.359375 L 22.371094 35.699219 C 22.179688 35.890625 22.074219 36.109375 22.136719 36.386719 L 22.015625 36.785156 C 21.960938 36.851562 21.878906 36.910156 21.851562 36.988281 C 21.578125 37.777344 21.316406 38.570312 21.039062 39.359375 C 21.003906 39.460938 20.90625 39.539062 20.835938 39.625 C 20.800781 39.171875 20.765625 38.714844 20.726562 38.261719 Z M 20.726562 38.261719 "/>
<path style=" stroke:none;fill-rule:evenodd;fill:rgb(80.784315%,80.392158%,71.764708%);fill-opacity:1;" d="M 20.835938 39.625 C 20.90625 39.535156 21.003906 39.457031 21.039062 39.359375 C 21.316406 38.570312 21.578125 37.777344 21.855469 36.988281 C 21.882812 36.910156 21.960938 36.851562 22.015625 36.785156 L 21.847656 38.605469 C 21.804688 38.65625 21.738281 38.699219 21.71875 38.761719 C 21.53125 39.289062 21.351562 39.824219 21.164062 40.351562 C 21.125 40.460938 21.046875 40.558594 20.988281 40.660156 C 20.9375 40.59375 20.84375 40.527344 20.839844 40.457031 C 20.824219 40.179688 20.835938 39.902344 20.835938 39.625 Z M 20.835938 39.625 "/>
<path style=" stroke:none;fill-rule:evenodd;fill:rgb(85.882354%,85.490197%,78.039217%);fill-opacity:1;" d="M 20.988281 40.660156 C 21.046875 40.558594 21.125 40.460938 21.160156 40.351562 C 21.351562 39.824219 21.527344 39.289062 21.71875 38.761719 C 21.738281 38.699219 21.804688 38.65625 21.847656 38.605469 L 21.851562 39.796875 L 21.453125 40.824219 Z M 20.988281 40.660156 "/>
<path style=" stroke:none;fill-rule:evenodd;fill:rgb(92.156863%,91.37255%,86.274511%);fill-opacity:1;" d="M 21.453125 40.824219 L 21.851562 39.796875 L 21.933594 41.011719 Z M 21.453125 40.824219 "/>
<path style=" stroke:none;fill-rule:evenodd;fill:rgb(80.784315%,80.392158%,71.764708%);fill-opacity:1;" d="M 22.136719 36.386719 C 22.074219 36.109375 22.179688 35.890625 22.371094 35.699219 L 22.484375 35.777344 Z M 22.136719 36.386719 "/>
<path style=" stroke:none;fill-rule:evenodd;fill:rgb(30.980393%,66.666669%,25.490198%);fill-opacity:1;" d="M 21.105469 31.226562 L 21.058594 31.226562 L 21.109375 31.042969 Z M 21.105469 31.226562 "/>
</g>
</svg>
