<?xml version="1.0" encoding="UTF-8"?>
<svg xmlns="http://www.w3.org/2000/svg" xmlns:xlink="http://www.w3.org/1999/xlink" width="48px" height="48px" viewBox="0 0 48 48" version="1.1">
<g id="surface1">
<path style=" stroke:none;fill-rule:nonzero;fill:rgb(0%,0%,0%);fill-opacity:1;" d="M 43.558594 36.46875 L 27.097656 1.507812 C 26.679688 0.632812 25.816406 0.0546875 24.847656 0.00390625 C 23.875 -0.0585938 22.949219 0.421875 22.441406 1.253906 L 4.589844 30.167969 C 4.035156 31.0625 4.046875 32.191406 4.617188 33.074219 L 13.347656 46.589844 C 14.023438 47.632812 15.308594 48.105469 16.5 47.75 L 41.832031 40.257812 C 42.601562 40.03125 43.238281 39.480469 43.574219 38.75 C 43.90625 38.023438 43.898438 37.1875 43.558594 36.464844 Z M 39.871094 37.964844 L 18.378906 44.324219 C 17.722656 44.519531 17.09375 43.949219 17.230469 43.289062 L 24.910156 6.515625 C 25.050781 5.828125 26.003906 5.71875 26.300781 6.355469 L 40.519531 36.546875 C 40.644531 36.816406 40.648438 37.132812 40.523438 37.40625 C 40.398438 37.679688 40.160156 37.882812 39.871094 37.964844 Z M 39.871094 37.964844 "/>
</g>
</svg>
