<?xml version="1.0" encoding="UTF-8"?>
<svg xmlns="http://www.w3.org/2000/svg" xmlns:xlink="http://www.w3.org/1999/xlink" width="42px" height="42px" viewBox="0 0 42 42" version="1.1">
<g id="surface1">
<path style=" stroke:none;fill-rule:nonzero;fill:rgb(46.27451%,29.019609%,73.725492%);fill-opacity:1;" d="M 29.101562 28.832031 C 30.652344 28.671875 31.828125 27.335938 31.773438 25.730469 C 31.71875 24.128906 30.382812 22.84375 28.78125 22.84375 L 28.675781 22.84375 C 27.015625 22.898438 25.734375 24.289062 25.789062 25.945312 C 25.839844 26.746094 26.160156 27.441406 26.644531 27.921875 C 24.824219 31.503906 22.046875 34.121094 17.878906 36.3125 C 15.046875 37.808594 12.105469 38.34375 9.164062 37.972656 C 6.761719 37.648438 4.890625 36.582031 3.714844 34.816406 C 2.003906 32.199219 1.84375 29.367188 3.285156 26.53125 C 4.300781 24.5 5.90625 23.003906 6.921875 22.257812 C 6.707031 21.5625 6.386719 20.386719 6.226562 19.53125 C -1.523438 25.144531 -0.722656 32.734375 1.628906 36.3125 C 3.394531 38.988281 6.976562 40.644531 10.929688 40.644531 C 12 40.644531 13.066406 40.535156 14.136719 40.269531 C 20.976562 38.933594 26.160156 34.871094 29.101562 28.832031 Z M 38.507812 22.203125 C 34.445312 17.445312 28.460938 14.828125 21.617188 14.828125 L 20.765625 14.828125 C 20.28125 13.867188 19.265625 13.222656 18.144531 13.222656 L 18.039062 13.222656 C 16.382812 13.277344 15.097656 14.667969 15.152344 16.324219 C 15.207031 17.925781 16.542969 19.210938 18.144531 19.210938 L 18.25 19.210938 C 19.425781 19.15625 20.441406 18.410156 20.871094 17.394531 L 21.832031 17.394531 C 25.894531 17.394531 29.742188 18.570312 33.21875 20.867188 C 35.890625 22.632812 37.8125 24.929688 38.882812 27.707031 C 39.789062 29.953125 39.738281 32.144531 38.773438 34.015625 C 37.277344 36.847656 34.765625 38.398438 31.453125 38.398438 C 29.316406 38.398438 27.285156 37.757812 26.214844 37.277344 C 25.628906 37.808594 24.558594 38.664062 23.808594 39.199219 C 26.109375 40.269531 28.460938 40.855469 30.703125 40.855469 C 35.835938 40.855469 39.628906 38.023438 41.074219 35.191406 C 42.625 32.089844 42.515625 26.746094 38.507812 22.203125 Z M 11.355469 29.738281 C 11.410156 31.34375 12.746094 32.625 14.351562 32.625 L 14.457031 32.625 C 16.113281 32.574219 17.398438 31.183594 17.34375 29.527344 C 17.289062 27.921875 15.953125 26.640625 14.351562 26.640625 L 14.242188 26.640625 C 14.136719 26.640625 13.976562 26.640625 13.871094 26.691406 C 11.679688 23.058594 10.769531 19.101562 11.089844 14.828125 C 11.304688 11.621094 12.371094 8.839844 14.242188 6.542969 C 15.792969 4.566406 18.785156 3.601562 20.816406 3.550781 C 26.484375 3.441406 28.886719 10.496094 29.046875 13.332031 C 29.742188 13.492188 30.917969 13.867188 31.71875 14.132812 C 31.078125 5.472656 25.734375 0.984375 20.605469 0.984375 C 15.792969 0.984375 11.355469 4.457031 9.59375 9.589844 C 7.136719 16.429688 8.738281 23.003906 11.730469 28.191406 C 11.464844 28.5625 11.304688 29.152344 11.355469 29.738281 Z M 11.355469 29.738281 "/>
</g>
</svg>
