<?xml version="1.0" encoding="UTF-8"?>
<svg xmlns="http://www.w3.org/2000/svg" xmlns:xlink="http://www.w3.org/1999/xlink" width="42px" height="32px" viewBox="0 0 42 32" version="1.1">
<g id="surface1">
<path style=" stroke:none;fill-rule:nonzero;fill:rgb(80.392158%,40.392157%,60.000002%);fill-opacity:1;" d="M 36.140625 18.417969 C 34.679688 18.425781 33.410156 18.785156 32.34375 19.3125 C 31.957031 18.527344 31.566406 17.828125 31.496094 17.316406 C 31.417969 16.71875 31.328125 16.351562 31.417969 15.636719 C 31.511719 14.921875 31.925781 13.902344 31.917969 13.824219 C 31.910156 13.75 31.824219 13.382812 30.984375 13.375 C 30.140625 13.367188 29.414062 13.539062 29.332031 13.765625 C 29.246094 13.988281 29.085938 14.503906 28.980469 15.03125 C 28.832031 15.808594 27.296875 18.582031 26.417969 20.035156 C 26.132812 19.46875 25.886719 18.972656 25.835938 18.574219 C 25.757812 17.976562 25.667969 17.609375 25.757812 16.894531 C 25.851562 16.179688 26.261719 15.164062 26.253906 15.085938 C 26.25 15.007812 26.164062 14.640625 25.324219 14.632812 C 24.480469 14.625 23.753906 14.796875 23.671875 15.023438 C 23.585938 15.25 23.492188 15.777344 23.316406 16.289062 C 23.140625 16.800781 21.097656 21.433594 20.5625 22.632812 C 20.289062 23.246094 20.050781 23.734375 19.882812 24.070312 C 19.882812 24.070312 19.875 24.09375 19.851562 24.132812 C 19.707031 24.417969 19.621094 24.574219 19.621094 24.574219 C 19.621094 24.574219 19.621094 24.574219 19.621094 24.582031 C 19.507812 24.792969 19.386719 24.984375 19.324219 24.984375 C 19.277344 24.984375 19.195312 24.425781 19.339844 23.664062 C 19.644531 22.054688 20.371094 19.554688 20.363281 19.46875 C 20.363281 19.421875 20.503906 18.984375 19.890625 18.761719 C 19.292969 18.535156 19.078125 18.910156 19.027344 18.910156 C 18.972656 18.910156 18.933594 19.039062 18.933594 19.039062 C 18.933594 19.039062 19.601562 16.226562 17.664062 16.226562 C 16.457031 16.226562 14.789062 17.570312 13.960938 18.785156 C 13.441406 19.070312 12.332031 19.6875 11.144531 20.347656 C 10.695312 20.601562 10.226562 20.859375 9.792969 21.101562 C 9.761719 21.070312 9.730469 21.03125 9.699219 21 C 7.359375 18.457031 3.03125 16.664062 3.214844 13.25 C 3.28125 12.007812 3.703125 8.742188 11.527344 4.78125 C 17.96875 1.554688 23.097656 2.449219 23.984375 4.429688 C 25.253906 7.257812 21.238281 12.511719 14.582031 13.273438 C 12.042969 13.5625 10.710938 12.566406 10.375 12.195312 C 10.023438 11.804688 9.96875 11.78125 9.839844 11.859375 C 9.625 11.976562 9.761719 12.324219 9.839844 12.527344 C 10.039062 13.054688 10.855469 13.988281 12.242188 14.449219 C 13.464844 14.851562 16.441406 15.078125 20.042969 13.664062 C 24.074219 12.078125 27.226562 7.671875 26.300781 3.980469 C 25.375 0.234375 19.253906 -1.003906 13.464844 1.089844 C 10.023438 2.332031 6.289062 4.289062 3.601562 6.839844 C 0.414062 9.871094 -0.09375 12.503906 0.113281 13.609375 C 0.855469 17.523438 6.171875 20.074219 8.300781 21.960938 C 8.195312 22.023438 8.09375 22.078125 8.011719 22.125 C 6.945312 22.664062 2.890625 24.816406 1.882812 27.09375 C 0.734375 29.671875 2.066406 31.523438 2.945312 31.769531 C 5.675781 32.539062 8.484375 31.15625 9.992188 28.871094 C 11.5 26.585938 11.316406 23.617188 10.617188 22.257812 C 10.609375 22.242188 10.601562 22.226562 10.589844 22.210938 C 10.863281 22.046875 11.144531 21.878906 11.421875 21.714844 C 11.964844 21.386719 12.5 21.085938 12.960938 20.835938 C 12.699219 21.558594 12.507812 22.421875 12.417969 23.664062 C 12.300781 25.125 12.890625 27.023438 13.664062 27.769531 C 14.007812 28.09375 14.414062 28.101562 14.671875 28.101562 C 15.574219 28.101562 15.980469 27.339844 16.433594 26.4375 C 16.984375 25.335938 17.480469 24.054688 17.480469 24.054688 C 17.480469 24.054688 16.859375 27.519531 18.542969 27.519531 C 19.15625 27.519531 19.777344 26.710938 20.050781 26.300781 L 20.050781 26.308594 C 20.050781 26.308594 20.066406 26.285156 20.097656 26.230469 C 20.160156 26.128906 20.195312 26.066406 20.195312 26.066406 L 20.195312 26.050781 C 20.441406 25.617188 20.992188 24.628906 21.8125 22.988281 C 22.867188 20.875 23.882812 18.234375 23.882812 18.234375 C 23.882812 18.234375 23.976562 18.878906 24.289062 19.949219 C 24.472656 20.578125 24.855469 21.269531 25.160156 21.941406 C 24.917969 22.289062 24.765625 22.484375 24.765625 22.484375 C 24.765625 22.484375 24.765625 22.484375 24.773438 22.492188 C 24.574219 22.753906 24.359375 23.042969 24.121094 23.324219 C 23.289062 24.332031 22.292969 25.492188 22.15625 25.824219 C 21.996094 26.222656 22.03125 26.507812 22.339844 26.742188 C 22.5625 26.914062 22.957031 26.9375 23.363281 26.914062 C 24.113281 26.859375 24.640625 26.671875 24.902344 26.554688 C 25.308594 26.410156 25.78125 26.183594 26.226562 25.847656 C 27.042969 25.234375 27.539062 24.355469 27.496094 23.199219 C 27.472656 22.5625 27.265625 21.925781 27.011719 21.324219 C 27.089844 21.214844 27.160156 21.109375 27.234375 21 C 28.527344 19.078125 29.53125 16.972656 29.53125 16.972656 C 29.53125 16.972656 29.621094 17.617188 29.933594 18.691406 C 30.089844 19.234375 30.402344 19.824219 30.675781 20.402344 C 29.460938 21.402344 28.710938 22.570312 28.445312 23.332031 C 27.960938 24.746094 28.335938 25.382812 29.046875 25.53125 C 29.371094 25.601562 29.828125 25.445312 30.164062 25.296875 C 30.59375 25.15625 31.097656 24.917969 31.582031 24.558594 C 32.398438 23.945312 33.1875 23.089844 33.140625 21.933594 C 33.117188 21.402344 32.980469 20.882812 32.789062 20.378906 C 33.820312 19.941406 35.152344 19.703125 36.851562 19.902344 C 40.492188 20.339844 41.210938 22.648438 41.074219 23.617188 C 40.9375 24.589844 40.171875 25.117188 39.917969 25.28125 C 39.667969 25.445312 39.582031 25.5 39.605469 25.617188 C 39.636719 25.785156 39.757812 25.777344 39.972656 25.746094 C 40.269531 25.691406 41.886719 24.960938 41.953125 23.175781 C 42.070312 20.890625 39.925781 18.394531 36.140625 18.417969 Z M 8.046875 28.039062 C 6.839844 29.378906 5.15625 29.882812 4.429688 29.453125 C 3.648438 28.996094 3.957031 27.023438 5.4375 25.609375 C 6.34375 24.746094 7.503906 23.945312 8.277344 23.453125 C 8.453125 23.347656 8.714844 23.191406 9.027344 22.996094 C 9.082031 22.964844 9.113281 22.949219 9.113281 22.949219 C 9.171875 22.910156 9.234375 22.871094 9.296875 22.832031 C 9.839844 24.855469 9.316406 26.632812 8.046875 28.039062 Z M 16.847656 21.960938 C 16.425781 23.003906 15.546875 25.671875 15.011719 25.523438 C 14.550781 25.398438 14.269531 23.378906 14.917969 21.378906 C 15.246094 20.378906 15.941406 19.179688 16.347656 18.714844 C 17.007812 17.96875 17.734375 17.71875 17.910156 18.023438 C 18.132812 18.417969 17.105469 21.308594 16.847656 21.960938 Z M 24.105469 25.492188 C 23.929688 25.585938 23.761719 25.648438 23.683594 25.601562 C 23.632812 25.570312 23.761719 25.445312 23.761719 25.445312 C 23.761719 25.445312 24.671875 24.449219 25.03125 24 C 25.238281 23.734375 25.484375 23.425781 25.742188 23.074219 L 25.742188 23.175781 C 25.742188 24.363281 24.609375 25.164062 24.105469 25.492188 Z M 29.707031 24.191406 C 29.574219 24.101562 29.597656 23.789062 30.035156 22.816406 C 30.203125 22.4375 30.601562 21.800781 31.28125 21.1875 C 31.359375 21.433594 31.410156 21.675781 31.40625 21.902344 C 31.398438 23.402344 30.339844 23.960938 29.707031 24.191406 Z M 29.707031 24.191406 "/>
</g>
</svg>
